<?xml version="1.0" encoding="utf-8"?>
<!-- Generator: Adobe Illustrator 16.0.0, SVG Export Plug-In . SVG Version: 6.00 Build 0)  -->
<!DOCTYPE svg PUBLIC "-//W3C//DTD SVG 1.1//EN" "http://www.w3.org/Graphics/SVG/1.1/DTD/svg11.dtd">
<svg version="1.1" id="Layer_1" xmlns="http://www.w3.org/2000/svg" xmlns:xlink="http://www.w3.org/1999/xlink" x="0px" y="0px"
	 width="360px" height="82px" viewBox="0 0 360 82" enable-background="new 0 0 360 82" xml:space="preserve">
<g>
	<path fill="#D3D2CD" d="M36.85,22.078c-7.414,0-14.143,3.08-18.59,8.782h-1.141v-6.5l-1.139-1.141h-3.422l-1.141,1.141
		L1.722,79.102l1.142,1.142h4.675l1.142-1.142l5.474-30.793C16.32,35.763,23.391,27.78,35.937,27.78
		c7.641,0,12.089,3.992,12.089,12.089c0,2.053-0.343,4.449-0.685,6.271l-5.816,32.961l1.14,1.142h4.676l1.141-1.142l5.817-32.961
		c0.341-1.938,0.684-4.447,0.684-6.728C54.982,28.123,48.938,22.078,36.85,22.078z"/>
	<polygon fill="#D3D2CD" points="75.055,4.972 73.914,6.111 72.773,12.955 73.914,14.095 78.589,14.095 79.73,12.955 80.871,6.111 
		79.73,4.972 	"/>
	<polygon fill="#D3D2CD" points="71.861,23.219 70.721,24.359 61.027,79.102 62.167,80.243 66.844,80.243 67.983,79.102 
		77.677,24.359 76.537,23.219 	"/>
	<path fill="#D3D2CD" d="M113.487,22.078c-20.414,0-31.248,18.59-31.248,36.61c0,14.826,9.351,22.694,22.809,22.694
		c14.37,0,23.151-7.983,26.345-19.388l-1.14-1.141h-4.676l-1.141,1.141c-2.394,6.845-7.983,13.686-19.387,13.686
		c-9.581,0-15.852-5.588-15.852-16.992c0-14.713,8.326-30.908,24.291-30.908c11.063,0,14.598,6.272,14.598,12.203
		c0,0.57-0.113,1.484-0.113,1.484l1.14,1.14h4.676l1.14-1.14c0,0,0.116-0.914,0.116-1.825
		C135.043,29.149,126.488,22.078,113.487,22.078z"/>
	<polygon fill="#D3D2CD" points="155.573,0.409 154.432,1.55 140.746,79.102 141.886,80.243 155.8,80.243 156.941,79.102 
		170.627,1.55 169.486,0.409 	"/>
	<path fill="#D3D2CD" d="M220.008,23.219l-1.139,1.141l-1.939,3.763h-1.142c0,0-3.419-6.045-13.685-6.045
		c-19.958,0-31.02,17.792-31.02,34.784c0,13.459,9.807,24.521,23.495,24.521c7.298,0,11.176-3.421,13.001-5.245h1.14l0.457,2.965
		l1.139,1.142h12.773l1.141-1.142l9.695-54.742l-1.141-1.141H220.008z M210.34,67.301l-11.504-8.356l-11.502,8.356l4.394-13.521
		l-11.505-8.356h14.219l4.395-13.525l4.394,13.525h14.22l-11.502,8.356L210.34,67.301z"/>
	<path fill="#D3D2CD" d="M278.06,22.078c-9.694,0-13.912,5.702-13.912,5.702h-1.141l4.56-26.229l-1.14-1.142h-13.914l-1.14,1.142
		l-13.686,77.551l1.141,1.142h12.773l1.14-1.142l1.825-3.422h1.141c0,0,3.422,5.702,14.256,5.702
		c19.272,0,30.449-18.36,30.449-34.669C300.412,32.457,291.061,22.078,278.06,22.078z M268.365,67.697
		c-7.299,0-10.264-4.449-10.264-10.836c0-10.491,5.018-21.098,15.853-21.098c7.413,0,10.263,4.448,10.263,10.95
		C284.217,57.319,278.974,67.697,268.365,67.697z"/>
	<path fill="#D3D2CD" d="M334.4,22.078c-12.317,0-24.976,5.817-24.976,18.933c0,12.66,12.772,15.396,18.932,16.422
		c6.158,1.026,10.491,1.139,10.491,4.789c0,5.132-6.728,5.476-10.035,5.476c-5.133,0-8.211-0.913-8.211-4.449
		c0-0.455,0-0.797,0.113-1.254l-1.14-1.141h-13.801l-1.142,1.141c-0.227,0.912-0.227,1.711-0.227,2.28
		c0,9.466,9.01,17.107,24.406,17.107c12.773,0,26.23-4.903,26.23-19.16c0-11.747-10.605-15.167-16.766-16.194
		c-6.272-1.027-12.658-1.141-12.658-5.131c0-4.676,5.36-5.133,8.781-5.133c5.246,0,7.414,1.027,7.414,2.624
		c0,0.457-0.115,0.798-0.115,0.798l1.142,1.14h13.912l1.141-1.14c0.115-0.457,0.229-1.027,0.229-1.938
		C358.122,27.895,347.973,22.078,334.4,22.078z"/>
</g>
</svg>
